<svg width="25" height="26" viewBox="0 0 25 26" fill="none" xmlns="http://www.w3.org/2000/svg">
<path d="M20.84 4.89787L16.207 9.53086C15.2581 8.58204 13.9475 7.99507 12.5 7.99507V1.44336C15.7568 1.44336 18.7058 2.76316 20.84 4.89787Z" fill="url(#paint0_linear_920_79262)"/>
<path d="M8.79258 9.53045C7.84375 10.4793 7.25679 11.79 7.25679 13.2374H0.705078C0.705078 9.98065 2.02488 7.03163 4.15959 4.89746L8.79258 9.53045Z" fill="url(#paint1_linear_920_79262)"/>
<path d="M12.4991 1.44336V7.99507C11.0517 7.99507 9.74099 8.58204 8.79217 9.53086L4.15918 4.89787C6.29335 2.76316 9.24237 1.44336 12.4991 1.44336Z" fill="url(#paint2_linear_920_79262)"/>
<path d="M24.2936 13.2374H17.7418C17.7418 11.79 17.1549 10.4793 16.2061 9.53045L20.839 4.89746C22.9738 7.03163 24.2936 9.98065 24.2936 13.2374Z" fill="url(#paint3_linear_920_79262)"/>
<path d="M24.2936 13.2383C24.2936 16.495 22.9738 19.4441 20.839 21.5782L16.2061 16.9452C17.1549 15.9964 17.7418 14.6857 17.7418 13.2383H24.2936Z" fill="url(#paint4_linear_920_79262)"/>
<path d="M8.79258 16.9452L4.15959 21.5782C2.02488 19.4441 0.705078 16.495 0.705078 13.2383H7.25679C7.25679 14.6857 7.84375 15.9964 8.79258 16.9452Z" fill="url(#paint5_linear_920_79262)"/>
<path d="M20.84 21.5773C18.7058 23.712 15.7568 25.0318 12.5 25.0318V18.4801C13.9475 18.4801 15.2581 17.8932 16.207 16.9443L20.84 21.5773Z" fill="url(#paint6_linear_920_79262)"/>
<path d="M12.4991 18.4801V25.0318C9.24237 25.0318 6.29335 23.712 4.15918 21.5773L8.79217 16.9443C9.74099 17.8932 11.0517 18.4801 12.4991 18.4801Z" fill="url(#paint7_linear_920_79262)"/>
<path d="M18.8266 6.91126L16.207 9.53092C15.2581 8.58209 13.9475 7.99513 12.5 7.99513V4.29102C14.9709 4.29102 17.2071 5.29229 18.8266 6.91126Z" fill="url(#paint8_linear_920_79262)"/>
<path d="M8.79264 9.53079C7.84381 10.4796 7.25685 11.7903 7.25685 13.2378H3.55273C3.55273 10.7668 4.55396 8.53069 6.17298 6.91113L8.79264 9.53079Z" fill="url(#paint9_linear_920_79262)"/>
<path d="M12.4995 4.29102V7.99513C11.052 7.99513 9.74133 8.58209 8.79251 9.53092L6.17285 6.91126C7.79241 5.29229 10.0285 4.29102 12.4995 4.29102Z" fill="url(#paint10_linear_920_79262)"/>
<path d="M21.4469 13.2378H17.7428C17.7428 11.7903 17.1559 10.4796 16.207 9.53079L18.8267 6.91113C20.4457 8.53069 21.4469 10.7668 21.4469 13.2378Z" fill="url(#paint11_linear_920_79262)"/>
<path d="M21.4469 13.2383C21.4469 15.7092 20.4457 17.9453 18.8267 19.5649L16.207 16.9452C17.1559 15.9964 17.7428 14.6857 17.7428 13.2383H21.4469Z" fill="url(#paint12_linear_920_79262)"/>
<path d="M8.79264 16.9452L6.17298 19.5649C4.55401 17.9453 3.55273 15.7092 3.55273 13.2383H7.25685C7.25685 14.6857 7.84381 15.9964 8.79264 16.9452Z" fill="url(#paint13_linear_920_79262)"/>
<path d="M18.8266 19.565C17.2071 21.1839 14.9709 22.1852 12.5 22.1852V18.4811C13.9475 18.4811 15.2581 17.8941 16.207 16.9453L18.8266 19.565Z" fill="url(#paint14_linear_920_79262)"/>
<path d="M12.4995 18.4811V22.1852C10.0285 22.1852 7.79241 21.1839 6.17285 19.565L8.79251 16.9453C9.74133 17.8941 11.052 18.4811 12.4995 18.4811Z" fill="url(#paint15_linear_920_79262)"/>
<path d="M22.2014 6.53027L17.3889 11.3428C17.6169 11.9306 17.7422 12.5695 17.7422 13.2378C17.7422 14.6852 17.1553 15.9959 16.2065 16.9447C15.2576 17.8936 13.9469 18.4805 12.4995 18.4805C11.8313 18.4805 11.1923 18.3552 10.6045 18.1271L5.79199 22.9397C7.6964 24.2589 10.0076 25.0322 12.4995 25.0322C15.7563 25.0322 18.7053 23.7124 20.8395 21.5777C22.9742 19.4436 24.294 16.4945 24.294 13.2378C24.294 10.7459 23.5206 8.43469 22.2014 6.53027Z" fill="url(#paint16_linear_920_79262)"/>
<path d="M2.54482 18.1176L0.0258981 25.164C-0.0959646 25.5049 0.233251 25.8342 0.574183 25.7123L7.62051 23.1934C9.02634 21.7876 3.9506 16.7119 2.54482 18.1176Z" fill="url(#paint17_linear_920_79262)"/>
<path d="M16.1268 14.6875L7.62046 23.193C7.48149 22.9521 7.27031 22.7391 6.99977 22.5881C6.63017 22.3834 6.05213 22.4954 5.65193 22.6168C5.56482 22.6427 5.48517 22.5973 5.45276 22.5279C5.43237 22.4862 5.4287 22.4352 5.4509 22.3852C5.45183 22.3852 5.45183 22.3843 5.45183 22.3843C5.47409 22.3334 5.49355 22.2815 5.51022 22.2296C5.51762 22.2046 5.52502 22.1796 5.53247 22.1546C5.5334 22.1527 5.5334 22.1518 5.5334 22.1499C5.55473 22.0694 5.56953 21.9888 5.57786 21.9063C5.58066 21.8795 5.58252 21.8517 5.58433 21.8248C5.58664 21.78 5.58708 21.7353 5.58561 21.6905C5.57546 21.3773 5.47316 21.0663 5.2786 20.8021C5.23134 20.7372 5.17855 20.6761 5.12022 20.6177C5.06183 20.5594 5.00071 20.5066 4.93585 20.4593C4.63384 20.237 4.27071 20.1351 3.91316 20.1536C3.88629 20.1555 3.8585 20.1573 3.83164 20.1601C3.74919 20.1684 3.66767 20.1832 3.58801 20.2046C3.58615 20.2046 3.58522 20.2045 3.58335 20.2055C3.55835 20.2129 3.5333 20.2203 3.5083 20.2277C3.48144 20.2361 3.45551 20.2453 3.42958 20.2555C3.40458 20.2648 3.37953 20.275 3.35453 20.2861C3.3536 20.2861 3.3536 20.2861 3.35267 20.2871C3.30262 20.3093 3.25169 20.3056 3.21002 20.2852C3.14056 20.2528 3.09517 20.1731 3.1211 20.086C3.24247 19.6858 3.35453 19.1087 3.14982 18.7391C2.99879 18.4677 2.78669 18.2565 2.54492 18.1175L11.0504 9.61117C11.4339 9.22857 12.0546 9.22857 12.4372 9.61117L13.1607 10.3346L15.4034 12.5773L16.1268 13.3008C16.5094 13.6833 16.5094 14.304 16.1268 14.6875Z" fill="url(#paint18_linear_920_79262)"/>
<path d="M15.4033 12.5777L5.45271 22.5283C5.43231 22.4866 5.42864 22.4356 5.45084 22.3856C5.45177 22.3856 5.45177 22.3847 5.45177 22.3847C5.47403 22.3338 5.57035 21.9882 5.57776 21.9067C5.58148 21.8789 5.58329 21.8521 5.58423 21.8252C5.60276 21.4677 5.50084 21.1045 5.27854 20.8025C5.23128 20.7377 5.17849 20.6765 5.12016 20.6181C5.06177 20.5598 5.00065 20.507 4.93579 20.4597C4.63378 20.2374 4.27065 20.1355 3.9131 20.154C3.88624 20.155 3.85937 20.1568 3.83158 20.1605C3.75006 20.1679 3.66854 20.1828 3.58795 20.205C3.58609 20.205 3.58516 20.205 3.58329 20.2059C3.55829 20.2124 3.37952 20.2754 3.35447 20.2865C3.35354 20.2865 3.35354 20.2865 3.35261 20.2874C3.30256 20.3097 3.25163 20.3059 3.20996 20.2856L13.1605 10.335L15.4033 12.5777Z" fill="url(#paint19_linear_920_79262)"/>
<path d="M1.4482 24.2897C1.18154 24.023 0.883496 23.809 0.568251 23.6465L0.0258981 25.1637C-0.0959646 25.5046 0.233251 25.8339 0.574183 25.712L2.09139 25.1696C1.92884 24.8543 1.71487 24.5563 1.4482 24.2897Z" fill="url(#paint20_linear_920_79262)"/>
<path d="M24.206 1.53175L13.9346 11.8031L12.4321 10.3006C12.1046 9.97307 12.1046 9.44204 12.4321 9.11454L13.3308 8.21592C13.7187 7.82802 13.9366 7.30194 13.9366 6.75342V5.63356C13.9366 4.75253 14.4946 3.96822 15.327 3.67949L23.7263 0.766062C24.1913 0.604738 24.554 1.18371 24.206 1.53175Z" fill="url(#paint21_linear_920_79262)"/>
<path d="M24.2059 1.53113L13.9346 11.8025L15.4371 13.305C15.7646 13.6325 16.2956 13.6325 16.6231 13.305L17.5217 12.4063C17.9096 12.0184 18.4357 11.8005 18.9842 11.8005H20.104C20.9851 11.8005 21.7694 11.2425 22.0581 10.4101L24.9715 2.01074C25.1329 1.54579 24.5539 1.18309 24.2059 1.53113Z" fill="url(#paint22_linear_920_79262)"/>
<path d="M19.3669 6.85316L24.5261 1.69394C24.6545 1.56551 24.6698 1.35644 24.5499 1.21997C24.4185 1.07041 24.1905 1.06492 24.052 1.2034L18.8966 6.35885C18.5591 6.69639 18.0913 6.8812 17.6158 6.83919C17.1759 6.80036 16.7214 6.96689 16.4078 7.33894C15.9635 7.86615 15.9705 8.65252 16.4233 9.17252C16.967 9.79684 17.915 9.8213 18.4903 9.24595C18.7917 8.94463 18.9283 8.54115 18.9006 8.14708C18.8667 7.66693 19.0265 7.1935 19.3669 6.85316Z" fill="url(#paint23_linear_920_79262)"/>
<path d="M13.8494 7.34668C13.752 7.67192 13.5752 7.97134 13.3308 8.2158L12.4321 9.11442C12.1046 9.44192 12.1046 9.97295 12.4321 10.3005L13.9346 11.803L15.4371 13.3055C15.7646 13.633 16.2957 13.633 16.6232 13.3055L17.5218 12.4068C17.7663 12.1624 18.0657 11.9856 18.3909 11.8882L13.8494 7.34668Z" fill="url(#paint24_linear_920_79262)"/>
<path d="M14.8684 15.9452L9.79199 10.8687L11.8151 8.84566C12.0494 8.61134 12.4292 8.61134 12.6635 8.84566L16.8915 13.0736C17.1258 13.308 17.1258 13.6878 16.8915 13.9221L14.8684 15.9452Z" fill="url(#paint25_linear_920_79262)"/>
<defs>
<linearGradient id="paint0_linear_920_79262" x1="11.2233" y1="0.99983" x2="19.0209" y2="8.79738" gradientUnits="userSpaceOnUse">
<stop stop-color="#FFF5D9"/>
<stop offset="1" stop-color="#FFCE47"/>
</linearGradient>
<linearGradient id="paint1_linear_920_79262" x1="2.20826" y1="8.84334" x2="5.69851" y2="12.3336" gradientUnits="userSpaceOnUse">
<stop stop-color="#6FA953"/>
<stop offset="1" stop-color="#43765A"/>
</linearGradient>
<linearGradient id="paint2_linear_920_79262" x1="7.89996" y1="2.7414" x2="12.4867" y2="7.32821" gradientUnits="userSpaceOnUse">
<stop stop-color="#E4E08E"/>
<stop offset="1" stop-color="#6FA953"/>
</linearGradient>
<linearGradient id="paint3_linear_920_79262" x1="16.2654" y1="6.04236" x2="23.7099" y2="13.4869" gradientUnits="userSpaceOnUse">
<stop stop-color="#FFCE47"/>
<stop offset="1" stop-color="#FF9356"/>
</linearGradient>
<linearGradient id="paint4_linear_920_79262" x1="17.9192" y1="12.7611" x2="22.2349" y2="17.0769" gradientUnits="userSpaceOnUse">
<stop stop-color="#FF9356"/>
<stop offset="1" stop-color="#FF755C"/>
</linearGradient>
<linearGradient id="paint5_linear_920_79262" x1="1.5864" y1="13.2865" x2="6.66469" y2="18.3648" gradientUnits="userSpaceOnUse">
<stop stop-color="#7ACBFF"/>
<stop offset="1" stop-color="#45A2E0"/>
</linearGradient>
<linearGradient id="paint6_linear_920_79262" x1="12.4917" y1="19.1263" x2="16.752" y2="23.3866" gradientUnits="userSpaceOnUse">
<stop stop-color="#FF755C"/>
<stop offset="1" stop-color="#FF4181"/>
</linearGradient>
<linearGradient id="paint7_linear_920_79262" x1="5.21864" y1="16.9182" x2="15.5204" y2="27.2199" gradientUnits="userSpaceOnUse">
<stop stop-color="#FF4181"/>
<stop offset="1" stop-color="#843561"/>
</linearGradient>
<linearGradient id="paint8_linear_920_79262" x1="17.2095" y1="8.99935" x2="12.4104" y2="4.20028" gradientUnits="userSpaceOnUse">
<stop stop-color="#FFF5D9"/>
<stop offset="1" stop-color="#FFCE47"/>
</linearGradient>
<linearGradient id="paint9_linear_920_79262" x1="7.727" y1="12.9386" x2="1.77896" y2="6.99054" gradientUnits="userSpaceOnUse">
<stop stop-color="#6FA953"/>
<stop offset="1" stop-color="#43765A"/>
</linearGradient>
<linearGradient id="paint10_linear_920_79262" x1="11.8869" y1="8.15185" x2="6.59344" y2="2.85842" gradientUnits="userSpaceOnUse">
<stop stop-color="#E4E08E"/>
<stop offset="1" stop-color="#6FA953"/>
</linearGradient>
<linearGradient id="paint11_linear_920_79262" x1="21.3905" y1="13.1802" x2="15.8024" y2="7.59206" gradientUnits="userSpaceOnUse">
<stop stop-color="#FFCE47"/>
<stop offset="1" stop-color="#FF9356"/>
</linearGradient>
<linearGradient id="paint12_linear_920_79262" x1="21.0053" y1="17.27" x2="17.2719" y2="13.5367" gradientUnits="userSpaceOnUse">
<stop stop-color="#FF9356"/>
<stop offset="1" stop-color="#FF755C"/>
</linearGradient>
<linearGradient id="paint13_linear_920_79262" x1="9.19381" y1="18.8805" x2="2.30097" y2="11.9876" gradientUnits="userSpaceOnUse">
<stop stop-color="#7ACBFF"/>
<stop offset="1" stop-color="#45A2E0"/>
</linearGradient>
<linearGradient id="paint14_linear_920_79262" x1="16.7312" y1="21.943" x2="11.7072" y2="16.919" gradientUnits="userSpaceOnUse">
<stop stop-color="#FF755C"/>
<stop offset="1" stop-color="#FF4181"/>
</linearGradient>
<linearGradient id="paint15_linear_920_79262" x1="12.6129" y1="22.2997" x2="6.48148" y2="16.1684" gradientUnits="userSpaceOnUse">
<stop stop-color="#FF4181"/>
<stop offset="1" stop-color="#843561"/>
</linearGradient>
<linearGradient id="paint16_linear_920_79262" x1="17.5634" y1="18.3017" x2="14.0001" y2="14.7384" gradientUnits="userSpaceOnUse">
<stop stop-color="#843561" stop-opacity="0"/>
<stop offset="1" stop-color="#3A2F4D"/>
</linearGradient>
<linearGradient id="paint17_linear_920_79262" x1="0.600192" y1="20.0609" x2="5.67517" y2="25.1358" gradientUnits="userSpaceOnUse">
<stop stop-color="#FFE0EA"/>
<stop offset="1" stop-color="#FFC0D5"/>
</linearGradient>
<linearGradient id="paint18_linear_920_79262" x1="2.54492" y1="16.2586" x2="16.4137" y2="16.2586" gradientUnits="userSpaceOnUse">
<stop stop-color="#FFCE47"/>
<stop offset="1" stop-color="#FF9356"/>
</linearGradient>
<linearGradient id="paint19_linear_920_79262" x1="11.4127" y1="18.5377" x2="6.28869" y2="13.4137" gradientUnits="userSpaceOnUse">
<stop stop-color="#FFCE47"/>
<stop offset="1" stop-color="#FF9356"/>
</linearGradient>
<linearGradient id="paint20_linear_920_79262" x1="0.640379" y1="24.7889" x2="1.9353" y2="26.0838" gradientUnits="userSpaceOnUse">
<stop stop-color="#2F73A0"/>
<stop offset="1" stop-color="#174461"/>
</linearGradient>
<linearGradient id="paint21_linear_920_79262" x1="18.036" y1="5.12598" x2="18.7042" y2="6.22388" gradientUnits="userSpaceOnUse">
<stop stop-color="#EDF5FF"/>
<stop offset="1" stop-color="#C7E9FF"/>
</linearGradient>
<linearGradient id="paint22_linear_920_79262" x1="19.7331" y1="7.23791" x2="20.64" y2="8.86086" gradientUnits="userSpaceOnUse">
<stop stop-color="#EDF5FF"/>
<stop offset="1" stop-color="#C7E9FF"/>
</linearGradient>
<linearGradient id="paint23_linear_920_79262" x1="21.4469" y1="6.15286" x2="19.8895" y2="4.59545" gradientUnits="userSpaceOnUse">
<stop stop-color="#2F73A0"/>
<stop offset="1" stop-color="#174461"/>
</linearGradient>
<linearGradient id="paint24_linear_920_79262" x1="15.546" y1="10.1908" x2="14.6951" y2="11.0416" gradientUnits="userSpaceOnUse">
<stop stop-color="#7ACBFF" stop-opacity="0"/>
<stop offset="1" stop-color="#2F73A0"/>
</linearGradient>
<linearGradient id="paint25_linear_920_79262" x1="13.9515" y1="11.4322" x2="12.627" y2="13.5595" gradientUnits="userSpaceOnUse">
<stop stop-color="#2F73A0"/>
<stop offset="1" stop-color="#174461"/>
</linearGradient>
</defs>
</svg>
