<svg width="13" height="18" viewBox="0 0 13 18" fill="none" xmlns="http://www.w3.org/2000/svg">
<g clip-path="url(#clip0_920_79140)">
<path d="M12.3894 7.82257C12.2318 7.82257 12.0832 7.76194 11.9711 7.64978L6.48733 2.16302L1.00057 7.64978C0.767152 7.87713 0.391264 7.87107 0.166943 7.63462C-0.0543457 7.40727 -0.0543457 7.04351 0.166943 6.81312L6.069 0.911069C6.29938 0.680685 6.67224 0.680685 6.90262 0.911069L12.8077 6.81616C13.0381 7.04654 13.0381 7.4194 12.8077 7.64978C12.6955 7.76194 12.547 7.82257 12.3894 7.82257Z" fill="#0A66C2"/>
<path d="M6.4876 15.498C6.16021 15.498 5.89648 15.2342 5.89648 14.9069V1.3294C5.89648 1.00201 6.16021 0.738281 6.4876 0.738281C6.81499 0.738281 7.07871 1.00201 7.07871 1.3294V14.9069C7.07871 15.2342 6.81499 15.498 6.4876 15.498Z" fill="#0A66C2"/>
<path d="M6.4876 17.2682C6.81406 17.2682 7.07871 17.0035 7.07871 16.6771C7.07871 16.3506 6.81406 16.0859 6.4876 16.0859C6.16114 16.0859 5.89648 16.3506 5.89648 16.6771C5.89648 17.0035 6.16114 17.2682 6.4876 17.2682Z" fill="#0A66C2"/>
</g>
<defs>
<clipPath id="clip0_920_79140">
<rect width="12.9803" height="16.53" fill="white" transform="translate(0 0.738281)"/>
</clipPath>
</defs>
</svg>
