<svg width="26" height="26" viewBox="0 0 26 26" fill="none" xmlns="http://www.w3.org/2000/svg">
<path d="M12.7832 0.365234C5.7369 0.365234 0 5.97504 0 12.8652C0 19.7554 5.7369 25.3652 12.7832 25.3652C19.8295 25.3652 25.5664 19.7554 25.5664 12.8652C25.5664 5.97504 19.8295 0.365234 12.7832 0.365234Z" fill="#E73B3B" fill-opacity="0.15"/>
<path d="M17.4938 15.9968C17.9099 16.4037 17.9099 17.0602 17.4938 17.4725C17.2885 17.6732 17.0111 17.7763 16.7392 17.7763C16.4673 17.7763 16.1955 17.6732 15.9846 17.4725L12.7833 14.3421L9.58196 17.4725C9.37667 17.6732 9.09926 17.7763 8.82739 17.7763C8.55553 17.7763 8.28367 17.6732 8.07283 17.4725C7.65671 17.0656 7.65671 16.4091 8.07283 15.9968L11.2742 12.8664L8.07283 9.73595C7.65671 9.32905 7.65671 8.67258 8.07283 8.26025C8.48895 7.85335 9.16029 7.85335 9.58196 8.26025L12.7833 11.3907L15.9846 8.26025C16.4008 7.85335 17.0721 7.85335 17.4938 8.26025C17.9099 8.66715 17.9099 9.32362 17.4938 9.73595L14.2924 12.8664L17.4938 15.9968Z" fill="#D12323"/>
</svg>
