<svg width="30" height="31" viewBox="0 0 30 31" fill="none" xmlns="http://www.w3.org/2000/svg">
<g clip-path="url(#clip0_920_79250)">
<path d="M14.8511 6.29705C13.4649 7.272 11.8938 8.37702 11.052 10.2052C9.58983 13.3948 14.0439 16.8739 14.2343 17.0205C14.2785 17.0545 14.3315 17.0715 14.3843 17.0715C14.4404 17.0715 14.4965 17.0523 14.5421 17.0141C14.6305 16.9402 14.6556 16.8146 14.6025 16.7123C14.5864 16.6812 12.9876 13.5757 13.047 11.3479C13.068 10.5719 14.1539 9.69164 15.3036 8.7597C16.3565 7.9061 17.5501 6.93866 18.2484 5.80692C19.7814 3.31573 18.0775 0.866154 18.0601 0.841662C17.9924 0.746623 17.8675 0.712228 17.7607 0.759044C17.654 0.806154 17.5949 0.921526 17.6193 1.03561C17.6227 1.05184 17.9541 2.67173 17.032 4.34066C16.6522 5.03031 15.8176 5.61731 14.8511 6.29705Z" fill="#DB380E"/>
<path d="M20.6913 7.39547C20.7891 7.32181 20.8178 7.18746 20.7587 7.08023C20.6994 6.973 20.5705 6.92572 20.456 6.9692C20.2206 7.05873 14.6895 9.19079 14.6895 11.7669C14.6895 13.5427 15.448 14.4808 16.0019 15.1658C16.2192 15.4346 16.4067 15.6666 16.4685 15.8647C16.6426 16.4356 16.2303 17.4674 16.0569 17.8169C16.0069 17.9173 16.0314 18.0391 16.1165 18.1124C16.1624 18.1521 16.2198 18.1722 16.2772 18.1722C16.326 18.1722 16.3751 18.1577 16.4176 18.1282C16.5127 18.0621 18.7418 16.486 18.342 14.5872C18.1931 13.8654 17.8384 13.3381 17.5255 12.8727C17.0407 12.1517 16.6905 11.6309 17.2217 10.6691C17.8441 9.5471 20.6628 7.4168 20.6913 7.39547Z" fill="#DB380E"/>
<path d="M6.29459 18.213C6.19978 18.4969 6.24455 18.7785 6.42391 19.0276C7.0235 19.8601 9.14735 20.3184 12.4045 20.3184C12.4047 20.3184 12.4048 20.3184 12.4049 20.3184C12.8462 20.3184 13.3122 20.3097 13.7894 20.2926C18.9969 20.1062 20.9284 18.4839 21.0081 18.4149C21.095 18.3398 21.1182 18.2146 21.0642 18.1133C21.0102 18.0122 20.8937 17.9613 20.7825 17.9919C18.9484 18.4927 15.5238 18.6705 13.1484 18.6705C10.4904 18.6705 9.13675 18.479 8.80534 18.3376C8.97538 18.1041 10.0242 17.6871 11.3239 17.4315C11.4481 17.4071 11.5335 17.2924 11.5212 17.1664C11.5089 17.0404 11.403 16.9443 11.2764 16.9443C10.5146 16.9443 6.69397 17.0055 6.29459 18.213Z" fill="#73A1FB"/>
<path d="M23.7204 16.542C22.6463 16.542 21.6278 17.0804 21.5849 17.1031C21.4856 17.1564 21.4352 17.2703 21.4624 17.3797C21.4898 17.489 21.5881 17.5658 21.7007 17.5659C21.7235 17.5659 23.9919 17.5845 24.1973 18.8805C24.3793 19.9986 22.0511 21.8102 21.1386 22.414C21.04 22.4792 21.0018 22.6052 21.0475 22.7142C21.0865 22.8069 21.1768 22.8649 21.2742 22.8649C21.2912 22.8649 21.3084 22.8632 21.3255 22.8595C21.5421 22.8132 26.6227 21.6936 26.0855 18.7355C25.7578 16.9226 24.6184 16.542 23.7204 16.542Z" fill="#73A1FB"/>
<path d="M20.2352 22.0517C20.2529 21.957 20.2135 21.8606 20.1346 21.8052L18.9164 20.9519C18.857 20.9103 18.7819 20.8973 18.7122 20.9157C18.6995 20.9189 17.4255 21.2539 15.576 21.4592C14.8419 21.5416 14.0197 21.585 13.1981 21.585C11.349 21.585 10.14 21.3678 9.9639 21.2084C9.94058 21.1636 9.94796 21.1433 9.95212 21.132C9.98411 21.043 10.1556 20.9373 10.2661 20.8955C10.3881 20.8503 10.4539 20.7178 10.416 20.5933C10.3781 20.4687 10.2497 20.3954 10.123 20.4258C8.901 20.7207 8.30346 21.1331 8.34694 21.6515C8.42417 22.5706 10.553 23.0423 12.3527 23.167C12.6115 23.1847 12.8914 23.1937 13.1845 23.1937C13.1846 23.1937 13.1848 23.1937 13.1849 23.1937C16.1776 23.1937 20.0141 22.2547 20.0524 22.2452C20.1461 22.2223 20.2175 22.1467 20.2352 22.0517Z" fill="#73A1FB"/>
<path d="M11.0516 24.024C11.1439 23.964 11.1848 23.85 11.1521 23.7449C11.1194 23.6398 11.0212 23.5708 10.9108 23.5723C10.747 23.5766 9.3083 23.6415 9.20757 24.5575C9.1771 24.8313 9.2555 25.0814 9.44072 25.3009C9.95728 25.9131 11.3517 26.2769 13.7029 26.4132C13.981 26.4299 14.2636 26.4383 14.5428 26.4383C17.532 26.4383 19.5451 25.5024 19.6294 25.4625C19.7112 25.4239 19.7651 25.3435 19.7699 25.2533C19.7747 25.1631 19.7296 25.0775 19.6525 25.0303L18.113 24.0904C18.0595 24.0579 17.9956 24.0471 17.9347 24.0596C17.925 24.0616 16.9474 24.2643 15.4722 24.4646C15.1931 24.5026 14.8435 24.5219 14.4333 24.5219C12.9597 24.5219 11.3206 24.2811 11.0062 24.1234C11.0017 24.094 11.0075 24.0566 11.0516 24.024Z" fill="#73A1FB"/>
<path d="M13.1494 29.2651C19.9963 29.2593 23.6712 28.0416 24.3791 27.2754C24.6297 27.0043 24.6568 26.7477 24.6355 26.5801C24.5829 26.1676 24.2071 25.915 24.1645 25.8876C24.0618 25.8215 23.9238 25.8388 23.8437 25.9312C23.7637 26.0237 23.7618 26.1588 23.8421 26.2512C23.8853 26.3068 23.9102 26.3998 23.784 26.5261C23.501 26.7905 20.6466 27.5928 15.8939 27.8338C15.2429 27.8677 14.56 27.8849 13.8645 27.885C9.60921 27.885 6.495 27.3021 6.08619 26.9625C6.24375 26.7361 7.34531 26.3744 8.51678 26.1698C8.6488 26.1468 8.73798 26.0224 8.71753 25.8899C8.69708 25.7576 8.57503 25.6665 8.44161 25.6837C8.40856 25.6883 8.29641 25.6949 8.16657 25.7029C6.23367 25.8209 4.00001 26.0839 3.88346 27.0799C3.84807 27.3833 3.93825 27.6588 4.15159 27.8986C4.6736 28.4851 6.17402 29.2649 13.1492 29.2649C13.1493 29.2651 13.1493 29.2651 13.1494 29.2651Z" fill="#73A1FB"/>
<path d="M25.7241 27.4905C25.6273 27.4458 25.5129 27.4684 25.4407 27.5463C25.4307 27.5572 24.4012 28.6336 21.3061 29.2657C20.1211 29.5031 17.8969 29.6235 14.6952 29.6235C11.4874 29.6235 8.43509 29.4973 8.40468 29.496C8.27718 29.4898 8.16813 29.5825 8.15079 29.708C8.13339 29.8334 8.21425 29.9517 8.33735 29.981C8.36911 29.9885 11.5679 30.7379 15.9416 30.7379C18.0393 30.7379 20.0806 30.5675 22.0089 30.2313C25.6043 29.601 25.856 27.8183 25.865 27.7427C25.8775 27.637 25.8207 27.5353 25.7241 27.4905Z" fill="#73A1FB"/>
</g>
<defs>
<clipPath id="clip0_920_79250">
<rect width="30" height="30" fill="white" transform="translate(0 0.738281)"/>
</clipPath>
</defs>
</svg>
