<svg width="33" height="24" viewBox="0 0 33 24" fill="none" xmlns="http://www.w3.org/2000/svg">
<g clip-path="url(#clip0_920_79317)">
<path d="M26.4533 13.6275H7.25332C6.29499 13.6275 5.65332 12.9687 5.65332 11.9847C5.65332 11.0007 6.29499 10.3418 7.25332 10.3418H26.4533C27.4117 10.3418 28.0533 11.0007 28.0533 11.9847C28.0533 12.9687 27.4117 13.6275 26.4533 13.6275Z" fill="#0A66C2"/>
<path d="M21.6531 23.484H12.0531C11.0948 23.484 10.4531 22.8251 10.4531 21.8411C10.4531 20.8571 11.0948 20.1982 12.0531 20.1982H21.6531C22.6115 20.1982 23.2531 20.8571 23.2531 21.8411C23.2531 22.8251 22.6115 23.484 21.6531 23.484Z" fill="#0A66C2"/>
<path d="M31.2535 3.77009H2.45352C1.49518 3.77009 0.853516 3.11124 0.853516 2.12723C0.853516 1.14323 1.49518 0.484375 2.45352 0.484375H31.2535C32.2118 0.484375 32.8535 1.14323 32.8535 2.12723C32.8535 3.11124 32.2118 3.77009 31.2535 3.77009Z" fill="#0A66C2"/>
</g>
<defs>
<clipPath id="clip0_920_79317">
<rect width="32" height="23" fill="white" transform="translate(0.853516 0.484375)"/>
</clipPath>
</defs>
</svg>
