<svg width="834" height="188" viewBox="0 0 834 188" fill="none" xmlns="http://www.w3.org/2000/svg">
<path d="M2.73918 107.764C1.36069 107.842 0.306631 109.023 0.384877 110.401C0.463123 111.78 1.64404 112.834 3.02254 112.756L2.73918 107.764ZM294.267 29.7927L294.333 27.2936L294.267 29.7927ZM460.55 184.764L460.532 187.264L460.55 184.764ZM613.259 2.64439L613.28 5.1443L613.259 2.64439ZM743.345 184.764L743.58 182.275L743.345 184.764ZM3.02254 112.756C5.53287 112.613 9.00464 113.389 13.4138 115.107C17.7687 116.803 22.795 119.319 28.33 122.408C39.4146 128.595 52.2369 136.906 65.4266 145.165C78.5575 153.387 92.0267 161.539 104.216 167.253C110.315 170.111 116.16 172.392 121.535 173.762C126.89 175.127 131.94 175.631 136.375 174.776L135.428 169.867C131.996 170.528 127.752 170.187 122.771 168.917C117.81 167.653 112.277 165.509 106.338 162.725C94.4541 157.155 81.2164 149.152 68.0801 140.927C55.0025 132.738 41.9972 124.31 30.7668 118.042C25.1442 114.904 19.891 112.264 15.2287 110.448C10.6207 108.653 6.33749 107.559 2.73918 107.764L3.02254 112.756ZM136.375 174.776C141.04 173.877 145.703 170.626 150.331 166.173C155.014 161.667 159.954 155.639 165.145 148.703C170.343 141.759 175.86 133.814 181.68 125.449C187.51 117.071 193.656 108.256 200.149 99.5089C213.15 81.9956 227.447 64.8918 243.173 52.303C258.892 39.721 275.84 31.8046 294.2 32.2918L294.333 27.2936C274.368 26.7637 256.293 35.3963 240.049 48.3996C223.813 61.3961 209.21 78.9139 196.134 96.5286C189.589 105.346 183.402 114.221 177.576 122.594C171.74 130.98 166.277 138.847 161.142 145.707C155.999 152.578 151.252 158.348 146.864 162.57C142.421 166.845 138.63 169.249 135.428 169.867L136.375 174.776ZM294.2 32.2918C312.954 32.7895 327.601 42.1973 340.376 56.4731C353.209 70.8129 363.923 89.8039 374.843 109.075C385.69 128.22 396.742 147.644 410.148 162.285C423.617 176.996 439.673 187.111 460.532 187.264L460.568 182.264C441.551 182.125 426.723 172.984 413.835 158.909C400.885 144.764 390.108 125.874 379.193 106.61C368.349 87.4724 357.366 67.9607 344.102 53.1389C330.781 38.2531 314.935 27.8403 294.333 27.2936L294.2 32.2918ZM460.532 187.264C478.543 187.396 492.933 175.235 505.284 158.051C517.67 140.819 528.486 117.858 539.173 95.1588C549.919 72.3345 560.536 49.7686 572.601 32.8522C584.702 15.8838 597.787 5.27092 613.28 5.1443L613.239 0.144469C595.245 0.291528 580.873 12.6419 568.53 29.949C556.15 47.3083 545.336 70.3303 534.65 93.029C523.904 115.852 513.287 138.35 501.224 155.133C489.126 171.966 476.052 182.378 460.568 182.264L460.532 187.264ZM613.28 5.1443C629.096 5.01504 641.445 15.104 652.093 31.4521C662.739 47.7954 671.282 69.7931 679.624 92.2912C687.915 114.653 696.012 137.523 705.727 155.107C715.382 172.581 727.12 185.745 743.11 187.253L743.58 182.275C730.274 181.02 719.65 169.968 710.103 152.689C700.617 135.519 692.672 113.1 684.312 90.5529C676.002 68.1421 667.283 45.6113 656.283 28.7231C645.286 11.8398 631.606 -0.00564432 613.239 0.144469L613.28 5.1443ZM743.11 187.253C752.317 188.122 762.599 183.287 772.506 176.241C782.521 169.118 792.642 159.379 801.649 149.627C810.67 139.86 818.642 130.006 824.354 122.6C827.212 118.895 829.508 115.798 831.091 113.625C831.883 112.538 832.497 111.682 832.913 111.096C833.122 110.803 833.281 110.578 833.389 110.425C833.443 110.348 833.484 110.29 833.511 110.25C833.525 110.23 833.536 110.215 833.543 110.205C833.547 110.2 833.549 110.196 833.551 110.193C833.552 110.191 833.553 110.19 833.554 110.189C833.554 110.189 833.555 110.188 831.504 108.759C829.452 107.33 829.452 107.33 829.452 107.33C829.452 107.331 829.451 107.331 829.451 107.332C829.449 107.334 829.447 107.337 829.444 107.342C829.438 107.351 829.428 107.364 829.416 107.382C829.39 107.419 829.352 107.474 829.3 107.547C829.197 107.693 829.043 107.912 828.839 108.197C828.433 108.769 827.83 109.61 827.05 110.68C825.49 112.822 823.221 115.882 820.395 119.546C814.74 126.878 806.866 136.61 797.976 146.234C789.074 155.873 779.22 165.33 769.608 172.166C759.888 179.079 750.891 182.965 743.58 182.275L743.11 187.253Z" fill="#002B55" fill-opacity="0.74"/>
</svg>
